<svg version="1.1" x="0px" y="0px" viewBox="0 0 350 500" xml:space="preserve">
  <g>
    <g>
      <polygon fill="#151515" points="134.496,62.016 107.856,62.016 107.856,86.329 134.496,86.329 134.496,102.504 88.923,102.504 88.923,45.838 134.496,45.838 "/>
      <polygon fill="#151515" points="196.265,61.385 171.576,61.385 197.25,89.244 197.25,102.504 144.367,102.504 144.367,86.979 170.039,86.979 144.367,59.119 144.367,45.838 196.265,45.838 196.265,61.385 "/>
      <polygon fill="#151515" points="258.643,61.385 233.954,61.385 259.629,89.244 259.629,102.504 206.746,102.504 206.746,86.979 232.416,86.979 206.746,59.119 206.746,45.838 258.643,45.838 258.643,61.385"/>
    </g>
    <polygon fill="#1673B6" points="52.62,431.994 25.55,128.374 323,128.374 295.903,431.945 174.093,465.715 "/>
    <polygon fill="#35A9DB" points="174.276,439.904 272.703,412.615 295.86,153.2 174.276,153.2 "/>
    <g>
      <polygon fill="#FFFFFF" points="175.275,263.2 223.551,263.2 226.953,225.068 174.275,225.068 175.275,187.829 175.404,187.829 242.65,187.829 266.758,187.82 257.605,300.436 175.275,300.436 "/>
      <polygon fill="#EBEBEB" points="175.336,359.954 132.863,348.754 130.212,319.057 92.832,319.057 98.049,377.525 174.326,398.701 174.498,398.652 "/>
      <polygon fill="#FFFFFF" points="220.386,298.859 215.901,348.729 174.369,359.94 174.369,398.682 250.709,377.525 251.269,371.234 257.746,298.859"/>
      <polygon fill="#EBEBEB" points="175.404,187.829 175.404,210.957 175.404,224.976 175.404,225.068 84.576,225.068 84.576,225.068 84.457,225.068 83.711,216.698 82.014,197.82 81.123,187.829 "/>
      <polygon fill="#EBEBEB" points="175.275,263.204 175.275,286.333 175.275,300.35 149.275,300.441 133.447,300.441 133.447,300.441 133.328,300.441 132.582,292.073 130.885,273.195 129.994,263.204 "/>
    </g>
  </g>
</svg>