<svg x="0px" y="0px" viewBox="0 0 350 500" xml:space="preserve">
  <g>
    <polygon fill="#E45126" points="53.07,431.97 26,128.35 323.45,128.35 296.352,431.921 174.543,465.69"/>
    
    <polygon fill="#F1682B" points="174.725,439.878 273.152,412.591 296.31,153.175 174.725,153.175"/>
    
    <polygon fill="#EBEBEB" points="175.725,265.784 125.45,265.784 122.046,227.652 175.725,227.652 175.725,190.413 175.596,190.413 81.35,190.413 82.242,200.404 91.394,303.02 175.725,303.02 "/>
	
    <polygon fill="#EBEBEB" points="175.725,362.491 175.562,362.538 133.09,351.338 130.438,321.641 110.287,321.641 93.058,321.641 98.275,380.108 175.553,401.284 175.725,401.235 "/>
    
    <g>
      <path fill="#020202" d="M53.675,45.838 h18.924v18.696H89.91v-18.696h18.925v56.618H89.911v-18.958h-17.31v18.958H53.675V145.838 L53.675,145.838z"/>
      <path fill="#020202" d="M133.719,64.614h-16.66v-18.775h52.252v18.775h-16.667v37.843H133.72L133.719,164.614L133.719,164.614z"/>
      <path fill="#020202" d="M177.604,45.838 h19.733l12.137,19.894l12.127-19.894h19.739v56.618h-18.846v-28.063l-13.021,20.13h-0.325 l-13.028-20.13v28.063h-18.517L177.604,145.838L177.604,145.838z"/>
      <path fill="#020202" d="M250.758,045.838 h18.929 v37.903 h26.612 v18.714h-45.542 L250.758,145.838 L250.758,145.838z"/>
    </g>
    <polygon fill="#FFFFFF" points="174.596,265.784 174.596,303.02 220.45,303.02 216.128,351.312 174.596,362.524 174.596,401.267 250.936,380.108 251.495,373.817 260.246,275.783 261.154,265.784 251.12,265.784 "/>
	<polygon fill="#FFFFFF" points="174.596,190.413 174.596,213.541 174.596,227.56 174.596,227.652 264.423,227.652 264.423,227.652 264.543,227.652 265.29,219.282 266.986,200.404 267.877,190.413 "/>
  </g>
</svg>