<svg version="1.1" x="0px" y="0px" viewBox="0 0 350 500" xml:space="preserve">
  <g>
	<polygon fill="#E4A227" points="55.345,428.754 28.275,125.132 325.725,125.132 298.627,428.705 176.818,462.475 "/>
	<polygon fill="#F0BF26" points="176.75,436.287 275.178,409 298.336,149.583 176.75,149.583 "/>
	<g>
      <polygon fill="#151515" points="229.936,58.071 205.246,58.071 230.922,85.931 230.922,99.191 178.039,99.191 178.039,83.665 203.709,83.665 178.039,55.806 178.039,42.525 229.936,42.525 229.936,58.071 "/>
      <path fill="#020202" d="M168.621,42.55 v56.617 h-45.543 V80.453 h26.613 V42.55 h18.928 H503.621z"/>
	</g>
	<polygon fill="#EBEBEB" points="176.693,358.926 176.531,358.973 135.059,347.773 132.406,318.075 112.256,318.075 95.027,318.075 100.244,376.543 176.521,397.719 "/>
	<polygon fill="#EBEBEB" points="176.709,299.437 181.709,262.2 135.855,262.2 141.232,203.758 181.812,202.677 181.709,163.954 107.565,163.954 104.811,191.403 96.059,289.438 95.151,299.437 105.186,299.437 "/>
	
    <polygon fill="#FFFFFF" points="181.457,202.729 181.62,202.683 222.291,205.132 230.742,243.579 245.893,243.579 263.123,243.579 256.609,171.633 181.629,163.937"/>
	
    <polyline fill="#FFFFFF" points="259.284,202.843 256.093,163.954 177.49,163.954 177.49,188.106 177.49,202.746 177.49,202.843 259.284,202.843 "/>
	
    <polygon fill="#FFFFFF" points="176.564,262.218 176.564,299.454 222.418,299.454 218.096,347.748 176.564,358.959 176.564,397.701 252.904,376.543 253.463,370.252 262.215,272.217 263.123,262.218 253.088,262.218 "/>
  </g>
</svg>