<?xml version="1.0" encoding="iso-8859-1"?>
<!-- Generator: Adobe Illustrator 19.0.0, SVG Export Plug-In . SVG Version: 6.00 Build 0)  -->
<svg version="1.1" x="0px" y="0px" viewBox="0 0 480 480" xml:space="preserve">
<g>
  <path d="M101,253.967h122.418c5.522,0,10-4.477,10-10v-24.87c0-21.267-6.658-40.821-18.747-55.059 c-4.811-5.666-10.407-10.382-16.61-14.077c17.358-11.389,28.852-31.002,28.852-53.257c0-35.126-28.59-63.703-63.732-63.703 c-35.118,0-63.688,28.577-63.688,63.703c0,21.865,11.081,41.187,27.919,52.659c-6.622,3.781-12.587,8.693-17.667,14.676 C97.656,178.275,91,197.829,91,219.097v24.87C91,249.49,95.478,253.967,101,253.967z M119.492,96.703 C119.491,72.605,139.09,53,163.18,53c24.114,0,43.732,19.605,43.732,43.703c0,24.086-19.618,43.682-43.732,43.682 C139.09,140.385,119.492,120.789,119.492,96.703z M111,219.097c0-34.569,21.058-58.712,51.209-58.712 s51.209,24.144,51.209,58.712v14.87H111V219.097z"/>
  <path d="M437.11,65.32L355.182,2.084C353.431,0.733,351.283,0,349.072,0H49c-5.522,0-10,4.477-10,10v460c0,5.523,4.478,10,10,10 h382c5.522,0,10-4.477,10-10V73.236C441,70.137,439.563,67.213,437.11,65.32z M421,460H59V20h286.662L421,78.15V460z"/>
  <path d="M384.533,270.806H98.887c-5.522,0-10,4.477-10,10s4.478,10,10,10h285.645c5.523,0,10-4.477,10.001-10 C394.533,275.283,390.055,270.806,384.533,270.806z"/>
  <path d="M384.533,315.322H98.887c-5.522,0-10,4.477-10,10s4.478,10,10,10h285.645c5.523,0,10-4.477,10.001-10 C394.533,319.799,390.055,315.322,384.533,315.322z"/>
  <path d="M260,164.226h124.532c5.523,0,10-4.477,10-10c0-5.523-4.478-10-10-10H260c-5.523,0-10,4.477-10,10 C250,159.749,254.477,164.226,260,164.226z"/>
  <path d="M250,106c0,5.523,4.477,10,10,10h124.532c5.523,0,10-4.477,10-10s-4.478-10-10-10H260C254.477,96,250,100.477,250,106z"/>
  <path d="M260,208.742h124.532c5.523,0,10-4.477,10-10c0-5.523-4.478-10-10-10H260c-5.523,0-10,4.477-10,10 S254.477,208.742,260,208.742z"/>
  <path d="M260,250h124.532c5.523,0,10-4.477,10-10s-4.478-10-10-10H260c-5.523,0-10,4.477-10,10S254.477,250,260,250z"/>
  <path d="M384.533,365H98.887c-5.522,0-10,4.477-10,10s4.478,10,10,10h285.645c5.523,0,10.001-4.477,10.001-10 S390.055,365,384.533,365z"/>
  <path d="M384.533,415.483H98.887c-5.522,0-10,4.477-10,10s4.478,10,10,10h285.645c5.523,0,10-4.477,10.001-10 C394.533,419.96,390.055,415.483,384.533,415.483z"/>
</g>
</svg>
